PathFileType	4	(X/Y/Z)	D:\TRACE\spot_10-12-23\spot_body_baseline_4-v60.trc
DataRate	CameraRate	NumFrames	NumMarkers	Units	OrigDataRate	OrigDataStartFrame	OrigNumFrames
100.00	100.00	      33	9	mm	100.00	876	      7000
Frame#	Time	front left toe			Front right toe			aft left toe			aft right toe			Arm			FL body			FR body			AL Body			AR Body			
		X1	Y1	Z1	X2	Y2	Z2	X3	Y3	Z3	X4	Y4	Z4	X5	Y5	Z5	X6	Y6	Z6	X7	Y7	Z7	X8	Y8	Z8	X9	Y9	Z9	

876	8.750	-263.48737	24.93005	138.92955	279.35605	140.01062	122.55519	-161.30199	23.05249	626.72626	335.08228	19.42845	600.44299	22.50621	805.17279	6.84594	-61.24604	542.95038	35.37679	90.78293	547.66754	18.24996	32.23703	551.71118	912.91602	183.33701	550.19354	899.41779	
877	8.760	-263.42209	25.07294	138.90849	280.82278	141.35072	119.48955	-161.37770	22.98497	626.67383	335.08218	19.43816	600.44080	21.36739	805.21210	7.16098	-61.64029	543.16663	35.56120	90.44514	547.85590	18.56562	32.84329	551.64447	914.08630	183.11697	550.13007	899.60071	
878	8.770	-263.38589	25.04108	138.93732	281.93988	141.40781	117.16534	-161.36021	22.91367	626.71393	335.07471	19.44855	600.47229	20.78919	805.53436	7.48763	-62.08632	543.30518	35.78920	90.28559	547.97577	18.90006	32.90196	551.68164	914.69244	182.84253	550.03210	899.75842	
879	8.780	-263.49088	24.98378	139.00998	283.11520	139.71474	115.05563	-161.41327	22.94318	626.77374	335.06873	19.46433	600.41614	20.78632	805.93048	7.96380	-62.36321	543.36548	35.99301	90.10378	547.98608	19.06952	32.90129	551.68536	914.77130	182.80150	549.96136	899.87750	
880	8.790	-263.57932	24.90865	139.07706	284.67340	138.67032	112.89234	-161.48024	23.00018	626.84888	335.12338	19.44600	600.37549	20.90606	806.03259	8.10198	-62.73206	543.47949	36.13027	89.77191	547.93030	19.45645	32.87614	551.67596	914.82983	182.75049	549.88000	899.94537	
881	8.800	-263.63345	24.81640	139.13676	285.62869	139.43690	110.08405	-161.46614	23.01906	626.83240	335.10052	19.44351	600.36060	20.91709	805.94080	8.10379	-62.97640	543.44836	36.30999	89.49507	547.81116	19.50467	32.77221	551.68921	914.81830	182.67006	549.79163	899.98584	
882	8.810	-263.70825	24.73096	139.15962	288.35980	139.61809	107.14458	-161.49510	23.05511	626.87390	335.07584	19.43596	600.37152	20.73178	805.74652	8.09084	-63.29378	543.39435	36.43553	89.19078	547.68768	19.52878	32.65023	551.62231	914.83582	182.72227	549.71320	900.26062	
883	8.820	-263.70209	24.65220	139.22589	290.19348	140.57999	104.56432	-161.53738	23.05931	626.86420	335.08316	19.46746	600.37518	20.52725	805.54572	7.99213	-63.45013	543.24146	36.43705	88.88519	547.49860	19.49105	32.35843	551.58514	914.76495	182.57303	549.65631	900.28723	
884	8.830	-263.68692	24.63810	139.15688	292.59433	140.99190	102.09019	-161.51067	23.04990	626.81293	335.03009	19.44988	600.37256	20.30490	805.33350	7.92578	-63.54856	543.11102	36.39117	88.76185	547.45197	19.47657	32.17342	551.40259	914.74445	182.39832	549.63831	900.23749	
885	8.840	-263.70279	24.66026	139.11487	294.99173	141.51587	99.45102	-161.46973	22.96315	626.85223	335.03217	19.45911	600.38202	20.15757	805.20966	7.84695	-63.62539	543.07080	36.34986	88.65951	547.46692	19.20290	31.89753	551.40588	914.72870	182.26593	549.76770	900.23938	
886	8.850	-263.71527	24.68689	139.06044	296.19507	140.59741	96.82498	-161.47188	22.96790	626.80023	335.02768	19.45845	600.39325	20.06943	805.23602	7.82061	-63.58099	543.01648	36.25843	88.66107	547.44482	19.18796	32.45020	551.63245	915.17328	182.06450	549.86401	900.01294	
887	8.860	-263.66254	24.69131	139.02467	297.29749	138.41415	94.28098	-161.44902	22.95801	626.77344	335.03879	19.47196	600.37982	20.15349	805.26721	7.78424	-63.60691	543.03821	36.26579	88.77573	547.43555	19.41645	32.25879	551.67285	915.06415	182.00134	549.93304	899.98901	
888	8.870	-263.67709	24.75226	139.02464	298.96478	133.10292	91.78473	-161.48494	22.98328	626.75031	335.03137	19.47044	600.39130	20.29572	805.36639	7.73275	-63.59336	543.13196	36.21582	88.85165	547.49225	19.43460	32.22664	551.76733	914.91522	181.97972	550.01361	899.98615	
889	8.880	-263.63147	24.77947	138.97662	300.60382	125.73345	88.97946	-161.51407	22.98526	626.75995	335.01941	19.48767	600.39166	20.34019	805.50659	7.74964	-63.46226	543.25140	36.15469	89.00932	547.64270	19.39420	32.16953	551.87781	914.83044	181.95802	550.18512	899.93536	
890	8.890	-263.57535	24.88455	138.90811	301.89182	115.99829	86.86795	-161.50798	22.98420	626.74280	335.05746	19.46982	600.37219	20.37620	805.63806	7.71175	-63.34919	543.43622	36.06816	89.16277	547.78967	19.41145	32.12289	552.06006	914.73309	182.00099	550.31464	899.89142	
891	8.900	-263.50259	24.93230	138.88948	303.30072	104.84432	84.85155	-161.47925	23.02600	626.73102	335.05499	19.46219	600.33319	20.38041	805.71002	7.56756	-63.26532	543.51208	35.95963	89.23501	547.86267	19.07887	32.11325	552.29773	914.63184	182.03217	550.51599	899.81171	
892	8.910	-263.50058	24.94744	138.88356	305.07224	92.92290	83.39132	-161.45723	23.08844	626.74634	335.07907	19.39650	600.30353	20.53207	805.74261	7.35670	-63.23232	543.51813	35.85390	89.31052	547.84686	19.19182	32.03214	552.48328	914.56970	182.16524	550.59698	899.84729	
893	8.920	-263.46442	24.90868	138.88512	306.02014	81.67146	82.23408	-161.40479	23.11566	626.73895	335.12833	19.38613	600.29736	20.71676	805.71710	7.11348	-63.13568	543.43689	35.76309	89.14866	547.84589	18.53787	32.30169	552.60107	914.71973	182.21078	550.74347	899.71680	
894	8.930	-263.48187	24.90412	138.86411	306.75632	71.26926	81.54276	-161.39406	23.12858	626.76434	335.08887	19.35686	600.28973	20.81387	805.53149	6.88735	-63.05483	543.30151	35.62423	89.20248	547.68304	18.28106	32.18533	552.73901	914.44122	182.23689	550.89764	899.58752	
895	8.940	-263.47125	24.87292	138.82628	308.57565	60.80957	81.85107	-161.36913	23.15142	626.75360	335.14307	19.32395	600.30817	20.87408	805.36688	6.53952	-62.97134	543.19177	35.42044	89.21374	547.58301	18.01898	32.09640	552.91064	914.06134	182.23366	551.02338	899.28674	
896	8.950	-263.47772	24.83276	138.80853	309.47015	50.65553	81.30819	-161.36740	23.16047	626.72607	335.14880	19.27948	600.27240	21.00308	805.19775	6.19233	-62.80271	543.03790	35.14100	89.37135	547.40057	18.05559	31.89516	553.02734	913.54773	182.31081	551.10999	899.15887	
897	8.960	-263.45410	24.77578	138.78645	309.97733	40.49695	80.21910	-161.36946	23.17568	626.70850	335.16974	19.28736	600.28491	21.14188	805.05048	5.85176	-62.67206	542.80933	34.74083	89.35663	547.17999	17.85049	32.15591	553.08954	913.34503	182.23260	551.27362	898.93066	
898	8.970	-263.49026	24.78256	138.73274	310.27173	29.79614	79.45618	-161.33531	23.14181	626.66473	335.15442	19.26008	600.28931	21.37728	804.90173	5.46642	-62.55343	542.68677	34.41384	89.70741	546.89679	17.85687	32.00472	553.25610	913.10376	182.18526	551.44501	898.75519	
899	8.980	-263.46359	24.75399	138.69766	310.35611	25.67628	76.18542	-161.31541	23.15122	626.62262	335.17737	19.26111	600.30084	21.84448	804.71375	5.16569	-62.46678	542.68109	34.00054	89.94401	546.75195	17.65198	32.14047	553.34717	912.66473	182.31125	551.51508	898.56281	
900	8.990	-263.02698	25.22108	139.03700	312.82880	25.72098	79.02728	-161.47171	22.45543	627.18250	335.07852	19.38783	599.99164	21.85120	804.86340	4.97050	-62.47327	543.01251	33.84616	90.10205	547.70905	17.25197	31.91531	553.19666	912.44995	182.06779	551.50537	898.43768	
901	9.000	-262.99008	25.84121	138.54196	314.67426	26.72115	81.11565	-162.28674	21.99981	625.53210	335.19312	19.43734	600.26599	20.79198	805.83337	5.10289	-62.30268	543.90796	33.75421	90.14896	548.40125	16.99723	32.64991	553.13293	911.99323	182.23799	551.53430	897.91803	
902	9.010	-263.15088	25.59732	138.99174	312.57941	28.01392	79.75292	-161.34502	22.30571	626.91138	335.06851	19.67109	600.06921	20.70331	807.05487	5.12376	-62.42870	544.41339	33.56385	89.91587	548.57813	16.68694	32.56002	554.08716	912.32947	182.73422	552.17358	897.76465	
903	9.020	-263.55051	25.30382	138.88759	312.92917	27.18610	80.45255	-161.37154	22.49290	626.32959	335.10095	19.52964	600.00336	21.31614	807.48505	4.85064	-62.67505	544.49609	33.54417	89.48695	548.67633	16.21528	32.45124	555.13110	911.84949	182.93039	552.85602	897.32800	
904	9.030	-263.59668	25.07481	139.05151	313.10983	27.25867	80.29668	-161.32704	22.60426	626.37775	335.13858	19.45851	599.87378	21.76576	807.23419	4.30364	-62.77945	544.77631	33.47165	89.17859	548.81561	15.80061	32.38044	555.77844	911.59924	183.23920	553.16406	897.02094	
905	9.040	-263.68661	25.07347	138.99242	312.51981	27.42726	80.38552	-161.39088	22.48684	626.36053	335.14175	19.39944	599.80212	21.76255	806.88556	3.52107	-62.97367	545.18188	33.02876	89.16290	548.91766	15.59700	32.86144	556.36096	911.39191	183.46460	553.46588	896.76855	
906	9.050	-263.75882	25.06907	138.98059	313.39047	27.52258	80.57111	-161.43350	22.54948	626.32458	335.10300	19.47121	599.80292	21.81714	806.78296	2.97519	-63.11662	545.23480	32.48440	89.33982	548.88330	15.37173	33.50297	556.58997	911.00171	183.61287	553.91754	896.47198	
907	9.060	-263.68503	25.15836	138.88718	313.31659	27.42576	80.07800	-161.42039	22.63481	626.21893	335.11316	19.48313	599.79504	22.04944	806.83252	2.39229	-62.92793	545.28650	31.82528	89.63254	548.76440	14.89005	33.07443	556.87665	910.07013	184.17792	554.74377	896.58221	
908	9.070	-263.67010	25.21946	138.71220	313.52121	27.65764	80.47442	-161.42085	22.62374	626.06244	335.13800	19.49912	599.75934	22.14593	806.81207	1.78410	-62.29483	544.96661	31.46222	89.75221	548.70789	14.03976	33.26833	557.31317	909.60455	183.58043	554.50470	895.16974	
